{"asset":{"version":"2.0","generator":"Blockbench 4.12.3 glTF exporter"},"scenes":[{"nodes":[27],"name":"blockbench_export"}],"scene":0,"nodes":[{"name":"plane","mesh":0},{"name":"bone5","children":[0]},{"rotation":[0.04624699618945426,0.046246996189454256,-0.705592811289523,0.7055928112895231],"translation":[0,0.46875,-0.90625],"name":"cylinder","mesh":1},{"rotation":[-0.04624699618945426,-0.046246996189454256,-0.705592811289523,0.7055928112895231],"translation":[0,0.46875,0.90625],"name":"cylinder","mesh":2},{"rotation":[-0.04624699618945426,0.046246996189454256,0.705592811289523,0.7055928112895231],"translation":[0,0.46875,0.90625],"name":"cylinder","mesh":3},{"rotation":[0.7071067811865475,0,0,0.7071067811865476],"translation":[0.625,1.21875,0.03125],"name":"cylinder","mesh":4},{"translation":[0.625,1.65625,0],"name":"cylinder","mesh":5},{"rotation":[0.04624699618945426,-0.046246996189454256,0.705592811289523,0.7055928112895231],"translation":[0,0.46875,-0.90625],"name":"cylinder","mesh":6},{"name":"Стена","children":[2,3,4,5,6,7]},{"translation":[0,0,-1.84375],"name":"balka 1","mesh":7},{"translation":[1.3125,0,0],"name":"balka 2","mesh":8},{"translation":[1.3125,0,-1.84375],"name":"balka 1","mesh":9},{"name":"balka 4","mesh":10},{"translation":[-0.65625,0,0.90625],"name":"bone6","children":[9,10,11,12]},{"rotation":[-0.25628239463035496,-0.6590290844890921,0.25628239463035496,0.6590290844890923],"translation":[0.53125,1.1875,0.8125],"name":"cube","mesh":11},{"rotation":[-0.25628239463035496,0.6590290844890921,-0.25628239463035496,0.6590290844890923],"translation":[-0.53125,1.1875,0.8125],"name":"cube","mesh":12},{"rotation":[0.25628239463035496,-0.6590290844890921,-0.25628239463035496,0.6590290844890923],"translation":[-0.53125,1.1875,-0.8125],"name":"cube","mesh":13},{"rotation":[0.25628239463035496,0.6590290844890921,0.25628239463035496,0.6590290844890923],"translation":[0.53125,1.1875,-0.8125],"name":"cube","mesh":14},{"name":"bone","children":[14,15,16,17]},{"rotation":[0,0,0.7071067811865475,0.7071067811865476],"translation":[-0.3125,1.96875,0],"name":"cylinder","mesh":15},{"rotation":[0,0,-0.7071067811865475,0.7071067811865476],"translation":[0.3125,1.96875,0],"name":"cylinder","mesh":16},{"name":"bone2","children":[19,20]},{"translation":[-0.375,0.0625,-0.4375],"name":"cuboid","mesh":17},{"translation":[-0.09375,0,-0.4375],"name":"cuboid","mesh":18},{"name":"bone3","children":[22,23]},{"translation":[-1.0625,0.5625,0],"name":"cuboid","mesh":19},{"name":"bone4","children":[25]},{"children":[1,8,13,18,21,24,26]}],"bufferViews":[{"buffer":0,"byteOffset":0,"byteLength":48,"target":34962,"byteStride":12},{"buffer":0,"byteOffset":48,"byteLength":48,"target":34962,"byteStride":12},{"buffer":0,"byteOffset":96,"byteLength":32,"target":34962,"byteStride":8},{"buffer":0,"byteOffset":128,"byteLength":12,"target":34963},{"buffer":0,"byteOffset":140,"byteLength":480,"target":34962,"byteStride":12},{"buffer":0,"byteOffset":620,"byteLength":480,"target":34962,"byteStride":12},{"buffer":0,"byteOffset":1100,"byteLength":320,"target":34962,"byteStride":8},{"buffer":0,"byteOffset":1420,"byteLength":96,"target":34963},{"buffer":0,"byteOffset":1516,"byteLength":480,"target":34962,"byteStride":12},{"buffer":0,"byteOffset":1996,"byteLength":480,"target":34962,"byteStride":12},{"buffer":0,"byteOffset":2476,"byteLength":320,"target":34962,"byteStride":8},{"buffer":0,"byteOffset":2796,"byteLength":96,"target":34963},{"buffer":0,"byteOffset":2892,"byteLength":480,"target":34962,"byteStride":12},{"buffer":0,"byteOffset":3372,"byteLength":480,"target":34962,"byteStride":12},{"buffer":0,"byteOffset":3852,"byteLength":320,"target":34962,"byteStride":8},{"buffer":0,"byteOffset":4172,"byteLength":96,"target":34963},{"buffer":0,"byteOffset":4268,"byteLength":480,"target":34962,"byteStride":12},{"buffer":0,"byteOffset":4748,"byteLength":480,"target":34962,"byteStride":12},{"buffer":0,"byteOffset":5228,"byteLength":320,"target":34962,"byteStride":8},{"buffer":0,"byteOffset":5548,"byteLength":96,"target":34963},{"buffer":0,"byteOffset":5644,"byteLength":480,"target":34962,"byteStride":12},{"buffer":0,"byteOffset":6124,"byteLength":480,"target":34962,"byteStride":12},{"buffer":0,"byteOffset":6604,"byteLength":320,"target":34962,"byteStride":8},{"buffer":0,"byteOffset":6924,"byteLength":96,"target":34963},{"buffer":0,"byteOffset":7020,"byteLength":480,"target":34962,"byteStride":12},{"buffer":0,"byteOffset":7500,"byteLength":480,"target":34962,"byteStride":12},{"buffer":0,"byteOffset":7980,"byteLength":320,"target":34962,"byteStride":8},{"buffer":0,"byteOffset":8300,"byteLength":96,"target":34963},{"buffer":0,"byteOffset":8396,"byteLength":480,"target":34962,"byteStride":12},{"buffer":0,"byteOffset":8876,"byteLength":480,"target":34962,"byteStride":12},{"buffer":0,"byteOffset":9356,"byteLength":320,"target":34962,"byteStride":8},{"buffer":0,"byteOffset":9676,"byteLength":96,"target":34963},{"buffer":0,"byteOffset":9772,"byteLength":480,"target":34962,"byteStride":12},{"buffer":0,"byteOffset":10252,"byteLength":480,"target":34962,"byteStride":12},{"buffer":0,"byteOffset":10732,"byteLength":320,"target":34962,"byteStride":8},{"buffer":0,"byteOffset":11052,"byteLength":96,"target":34963},{"buffer":0,"byteOffset":11148,"byteLength":480,"target":34962,"byteStride":12},{"buffer":0,"byteOffset":11628,"byteLength":480,"target":34962,"byteStride":12},{"buffer":0,"byteOffset":12108,"byteLength":320,"target":34962,"byteStride":8},{"buffer":0,"byteOffset":12428,"byteLength":96,"target":34963},{"buffer":0,"byteOffset":12524,"byteLength":480,"target":34962,"byteStride":12},{"buffer":0,"byteOffset":13004,"byteLength":480,"target":34962,"byteStride":12},{"buffer":0,"byteOffset":13484,"byteLength":320,"target":34962,"byteStride":8},{"buffer":0,"byteOffset":13804,"byteLength":96,"target":34963},{"buffer":0,"byteOffset":13900,"byteLength":288,"target":34962,"byteStride":12},{"buffer":0,"byteOffset":14188,"byteLength":288,"target":34962,"byteStride":12},{"buffer":0,"byteOffset":14476,"byteLength":192,"target":34962,"byteStride":8},{"buffer":0,"byteOffset":14668,"byteLength":72,"target":34963},{"buffer":0,"byteOffset":14740,"byteLength":288,"target":34962,"byteStride":12},{"buffer":0,"byteOffset":15028,"byteLength":288,"target":34962,"byteStride":12},{"buffer":0,"byteOffset":15316,"byteLength":192,"target":34962,"byteStride":8},{"buffer":0,"byteOffset":15508,"byteLength":72,"target":34963},{"buffer":0,"byteOffset":15580,"byteLength":288,"target":34962,"byteStride":12},{"buffer":0,"byteOffset":15868,"byteLength":288,"target":34962,"byteStride":12},{"buffer":0,"byteOffset":16156,"byteLength":192,"target":34962,"byteStride":8},{"buffer":0,"byteOffset":16348,"byteLength":72,"target":34963},{"buffer":0,"byteOffset":16420,"byteLength":288,"target":34962,"byteStride":12},{"buffer":0,"byteOffset":16708,"byteLength":288,"target":34962,"byteStride":12},{"buffer":0,"byteOffset":16996,"byteLength":192,"target":34962,"byteStride":8},{"buffer":0,"byteOffset":17188,"byteLength":72,"target":34963},{"buffer":0,"byteOffset":17260,"byteLength":480,"target":34962,"byteStride":12},{"buffer":0,"byteOffset":17740,"byteLength":480,"target":34962,"byteStride":12},{"buffer":0,"byteOffset":18220,"byteLength":320,"target":34962,"byteStride":8},{"buffer":0,"byteOffset":18540,"byteLength":96,"target":34963},{"buffer":0,"byteOffset":18636,"byteLength":480,"target":34962,"byteStride":12},{"buffer":0,"byteOffset":19116,"byteLength":480,"target":34962,"byteStride":12},{"buffer":0,"byteOffset":19596,"byteLength":320,"target":34962,"byteStride":8},{"buffer":0,"byteOffset":19916,"byteLength":96,"target":34963},{"buffer":0,"byteOffset":20012,"byteLength":288,"target":34962,"byteStride":12},{"buffer":0,"byteOffset":20300,"byteLength":288,"target":34962,"byteStride":12},{"buffer":0,"byteOffset":20588,"byteLength":192,"target":34962,"byteStride":8},{"buffer":0,"byteOffset":20780,"byteLength":72,"target":34963},{"buffer":0,"byteOffset":20852,"byteLength":864,"target":34962,"byteStride":12},{"buffer":0,"byteOffset":21716,"byteLength":864,"target":34962,"byteStride":12},{"buffer":0,"byteOffset":22580,"byteLength":576,"target":34962,"byteStride":8},{"buffer":0,"byteOffset":23156,"byteLength":216,"target":34963},{"buffer":0,"byteOffset":23372,"byteLength":480,"target":34962,"byteStride":12},{"buffer":0,"byteOffset":23852,"byteLength":480,"target":34962,"byteStride":12},{"buffer":0,"byteOffset":24332,"byteLength":320,"target":34962,"byteStride":8},{"buffer":0,"byteOffset":24652,"byteLength":12,"target":34963},{"buffer":0,"byteOffset":24664,"byteLength":24,"target":34963},{"buffer":0,"byteOffset":24688,"byteLength":24,"target":34963},{"buffer":0,"byteOffset":24712,"byteLength":24,"target":34963},{"buffer":0,"byteOffset":24736,"byteLength":36,"target":34963}],"buffers":[{"byteLength":24772,"uri":"data:application/octet-stream;base64,"}],"accessors":[{"bufferView":0,"componentType":5126,"count":4,"max":[2.125,0,2.125],"min":[-2.125,0,-2.125],"type":"VEC3"},{"bufferView":1,"componentType":5126,"count":4,"max":[0,1,0],"min":[0,1,0],"type":"VEC3"},{"bufferView":2,"componentType":5126,"count":4,"max":[0.53125,0.53125],"min":[0,0],"type":"VEC2"},{"bufferView":3,"componentType":5123,"count":6,"max":[3],"min":[0],"type":"SCALAR"},{"bufferView":4,"componentType":5126,"count":40,"max":[0.09375,0.59375,0.0625],"min":[-0.09375,0,-0.0625],"type":"VEC3"},{"bufferView":5,"componentType":5126,"count":40,"max":[1,1,1],"min":[-1,-1,-1],"type":"VEC3"},{"bufferView":6,"componentType":5126,"count":40,"max":[0.71875,0.75],"min":[0,0],"type":"VEC2"},{"bufferView":7,"componentType":5123,"count":48,"max":[39],"min":[0],"type":"SCALAR"},{"bufferView":8,"componentType":5126,"count":40,"max":[0.09375,0.59375,0.0625],"min":[-0.09375,0,-0.0625],"type":"VEC3"},{"bufferView":9,"componentType":5126,"count":40,"max":[1,1,1],"min":[-1,-1,-1],"type":"VEC3"},{"bufferView":10,"componentType":5126,"count":40,"max":[0.1875,0.25],"min":[0,0],"type":"VEC2"},{"bufferView":11,"componentType":5123,"count":48,"max":[39],"min":[0],"type":"SCALAR"},{"bufferView":12,"componentType":5126,"count":40,"max":[0.09375,0.59375,0.0625],"min":[-0.09375,0,-0.0625],"type":"VEC3"},{"bufferView":13,"componentType":5126,"count":40,"max":[1,1,1],"min":[-1,-1,-1],"type":"VEC3"},{"bufferView":14,"componentType":5126,"count":40,"max":[0.1875,0.25],"min":[0,0],"type":"VEC2"},{"bufferView":15,"componentType":5123,"count":48,"max":[39],"min":[0],"type":"SCALAR"},{"bufferView":16,"componentType":5126,"count":40,"max":[0.09375,0.6875,0.09375],"min":[-0.09375,-0.78125,-0.09375],"type":"VEC3"},{"bufferView":17,"componentType":5126,"count":40,"max":[1,1,1],"min":[-1,-1,-1],"type":"VEC3"},{"bufferView":18,"componentType":5126,"count":40,"max":[0.1875,0.25],"min":[0,0],"type":"VEC2"},{"bufferView":19,"componentType":5123,"count":48,"max":[39],"min":[0],"type":"SCALAR"},{"bufferView":20,"componentType":5126,"count":40,"max":[0.09375,0.25,0.09375],"min":[-0.09375,-0.34375,-0.09375],"type":"VEC3"},{"bufferView":21,"componentType":5126,"count":40,"max":[1,1,1],"min":[-1,-1,-1],"type":"VEC3"},{"bufferView":22,"componentType":5126,"count":40,"max":[0.1875,0.25],"min":[0,0],"type":"VEC2"},{"bufferView":23,"componentType":5123,"count":48,"max":[39],"min":[0],"type":"SCALAR"},{"bufferView":24,"componentType":5126,"count":40,"max":[0.09375,0.59375,0.0625],"min":[-0.09375,0,-0.0625],"type":"VEC3"},{"bufferView":25,"componentType":5126,"count":40,"max":[1,1,1],"min":[-1,-1,-1],"type":"VEC3"},{"bufferView":26,"componentType":5126,"count":40,"max":[0.1875,0.25],"min":[0,0],"type":"VEC2"},{"bufferView":27,"componentType":5123,"count":48,"max":[39],"min":[0],"type":"SCALAR"},{"bufferView":28,"componentType":5126,"count":40,"max":[0.078125,1.1875,0.203125],"min":[-0.078125,0,-0.078125],"type":"VEC3"},{"bufferView":29,"componentType":5126,"count":40,"max":[1,1,0.9945054650306702],"min":[-1,-1,-0.9945054650306702],"type":"VEC3"},{"bufferView":30,"componentType":5126,"count":40,"max":[0.7010420560836792,0.6875],"min":[0,0],"type":"VEC2"},{"bufferView":31,"componentType":5123,"count":48,"max":[39],"min":[0],"type":"SCALAR"},{"bufferView":32,"componentType":5126,"count":40,"max":[0.078125,1.1875,0.078125],"min":[-0.078125,0,-0.203125],"type":"VEC3"},{"bufferView":33,"componentType":5126,"count":40,"max":[1,1,0.9945054650306702],"min":[-1,-1,-0.9945054650306702],"type":"VEC3"},{"bufferView":34,"componentType":5126,"count":40,"max":[0.078125,0.265625],"min":[0,0],"type":"VEC2"},{"bufferView":35,"componentType":5123,"count":48,"max":[39],"min":[0],"type":"SCALAR"},{"bufferView":36,"componentType":5126,"count":40,"max":[0.078125,1.1875,0.203125],"min":[-0.078125,0,-0.078125],"type":"VEC3"},{"bufferView":37,"componentType":5126,"count":40,"max":[1,1,0.9945054650306702],"min":[-1,-1,-0.9945054650306702],"type":"VEC3"},{"bufferView":38,"componentType":5126,"count":40,"max":[0.078125,0.265625],"min":[0,0],"type":"VEC2"},{"bufferView":39,"componentType":5123,"count":48,"max":[39],"min":[0],"type":"SCALAR"},{"bufferView":40,"componentType":5126,"count":40,"max":[0.078125,1.1875,0.078125],"min":[-0.078125,0,-0.203125],"type":"VEC3"},{"bufferView":41,"componentType":5126,"count":40,"max":[1,1,0.9945054650306702],"min":[-1,-1,-0.9945054650306702],"type":"VEC3"},{"bufferView":42,"componentType":5126,"count":40,"max":[0.078125,0.265625],"min":[0,0],"type":"VEC2"},{"bufferView":43,"componentType":5123,"count":48,"max":[39],"min":[0],"type":"SCALAR"},{"bufferView":44,"componentType":5126,"count":24,"max":[0.0625,1.125,0.53125],"min":[-0.0625,-0.53125,-0.53125],"type":"VEC3"},{"bufferView":45,"componentType":5126,"count":24,"max":[1,1,1],"min":[-1,-1,-1],"type":"VEC3"},{"bufferView":46,"componentType":5126,"count":24,"max":[0.265625,0.62109375],"min":[0,0],"type":"VEC2"},{"bufferView":47,"componentType":5123,"count":36,"max":[23],"min":[0],"type":"SCALAR"},{"bufferView":48,"componentType":5126,"count":24,"max":[0.0625,1.125,0.53125],"min":[-0.0625,-0.53125,-0.53125],"type":"VEC3"},{"bufferView":49,"componentType":5126,"count":24,"max":[1,1,1],"min":[-1,-1,-1],"type":"VEC3"},{"bufferView":50,"componentType":5126,"count":24,"max":[0.265625,0.62109375],"min":[0,0.20703125],"type":"VEC2"},{"bufferView":51,"componentType":5123,"count":36,"max":[23],"min":[0],"type":"SCALAR"},{"bufferView":52,"componentType":5126,"count":24,"max":[0.0625,1.125,0.53125],"min":[-0.0625,-0.53125,-0.53125],"type":"VEC3"},{"bufferView":53,"componentType":5126,"count":24,"max":[1,1,1],"min":[-1,-1,-1],"type":"VEC3"},{"bufferView":54,"componentType":5126,"count":24,"max":[0.3984375,0.62109375],"min":[0.0625,0],"type":"VEC2"},{"bufferView":55,"componentType":5123,"count":36,"max":[23],"min":[0],"type":"SCALAR"},{"bufferView":56,"componentType":5126,"count":24,"max":[0.0625,1.125,0.53125],"min":[-0.0625,-0.53125,-0.53125],"type":"VEC3"},{"bufferView":57,"componentType":5126,"count":24,"max":[1,1,1],"min":[-1,-1,-1],"type":"VEC3"},{"bufferView":58,"componentType":5126,"count":24,"max":[0.53125,0.62109375],"min":[0.09375,0],"type":"VEC2"},{"bufferView":59,"componentType":5123,"count":36,"max":[23],"min":[0],"type":"SCALAR"},{"bufferView":60,"componentType":5126,"count":40,"max":[0.109375,0.875,0.140625],"min":[-0.109375,-0.34375,-0.140625],"type":"VEC3"},{"bufferView":61,"componentType":5126,"count":40,"max":[1,1,1],"min":[-1,-1,-1],"type":"VEC3"},{"bufferView":62,"componentType":5126,"count":40,"max":[0.078125,0.265625],"min":[0,0],"type":"VEC2"},{"bufferView":63,"componentType":5123,"count":48,"max":[39],"min":[0],"type":"SCALAR"},{"bufferView":64,"componentType":5126,"count":40,"max":[0.109375,0.875,0.140625],"min":[-0.109375,-0.34375,-0.140625],"type":"VEC3"},{"bufferView":65,"componentType":5126,"count":40,"max":[1,1,1],"min":[-1,-1,-1],"type":"VEC3"},{"bufferView":66,"componentType":5126,"count":40,"max":[0.078125,0.265625],"min":[0,0],"type":"VEC2"},{"bufferView":67,"componentType":5123,"count":48,"max":[39],"min":[0],"type":"SCALAR"},{"bufferView":68,"componentType":5126,"count":24,"max":[0.125,0.09375,0.21875],"min":[-0.125,0,-0.21875],"type":"VEC3"},{"bufferView":69,"componentType":5126,"count":24,"max":[1,1,1],"min":[-1,-1,-1],"type":"VEC3"},{"bufferView":70,"componentType":5126,"count":24,"max":[0.03125,0.03125],"min":[0,0],"type":"VEC2"},{"bufferView":71,"componentType":5123,"count":36,"max":[23],"min":[0],"type":"SCALAR"},{"bufferView":72,"componentType":5126,"count":72,"max":[0.46875,0.125,0.28125],"min":[-0.46875,0,-0.28125],"type":"VEC3"},{"bufferView":73,"componentType":5126,"count":72,"max":[1,1,1],"min":[-1,-1,-1],"type":"VEC3"},{"bufferView":74,"componentType":5126,"count":72,"max":[0.953125,0.578125],"min":[0,0],"type":"VEC2"},{"bufferView":75,"componentType":5123,"count":108,"max":[71],"min":[0],"type":"SCALAR"},{"bufferView":76,"componentType":5126,"count":40,"max":[0.34375,1.4375,0.96875],"min":[-0.03125,-0.5625,-0.9375],"type":"VEC3"},{"bufferView":77,"componentType":5126,"count":40,"max":[0.9517086148262024,0.7071067690849304,0.9965457320213318],"min":[-0.9520285725593567,-1,-0.9967290759086609],"type":"VEC3"},{"bufferView":78,"componentType":5126,"count":40,"max":[0.125,0.125],"min":[0,0],"type":"VEC2"},{"bufferView":79,"componentType":5123,"count":6,"max":[3],"min":[0],"type":"SCALAR"},{"bufferView":80,"componentType":5123,"count":12,"max":[11],"min":[4],"type":"SCALAR"},{"bufferView":81,"componentType":5123,"count":12,"max":[19],"min":[12],"type":"SCALAR"},{"bufferView":82,"componentType":5123,"count":12,"max":[27],"min":[20],"type":"SCALAR"},{"bufferView":83,"componentType":5123,"count":18,"max":[39],"min":[28],"type":"SCALAR"}],"materials":[{"pbrMetallicRoughness":{"metallicFactor":0,"roughnessFactor":1,"baseColorTexture":{"index":0}},"alphaMode":"MASK","alphaCutoff":0.05,"doubleSided":true},{"pbrMetallicRoughness":{"metallicFactor":0,"roughnessFactor":1,"baseColorTexture":{"index":1}},"alphaMode":"MASK","alphaCutoff":0.05,"doubleSided":true},{"pbrMetallicRoughness":{"metallicFactor":0,"roughnessFactor":1,"baseColorTexture":{"index":2}},"alphaMode":"MASK","alphaCutoff":0.05,"doubleSided":true},{"pbrMetallicRoughness":{"metallicFactor":0,"roughnessFactor":1,"baseColorTexture":{"index":3}},"alphaMode":"MASK","alphaCutoff":0.05,"doubleSided":true},{"pbrMetallicRoughness":{"metallicFactor":0,"roughnessFactor":1,"baseColorTexture":{"index":4}},"alphaMode":"MASK","alphaCutoff":0.05,"doubleSided":true},{"pbrMetallicRoughness":{"metallicFactor":0,"roughnessFactor":1},"alphaMode":"MASK","alphaCutoff":0.05,"doubleSided":true}],"textures":[{"sampler":0,"source":0,"name":"texture"},{"sampler":1,"source":1,"name":"texture"},{"sampler":2,"source":2,"name":"texture"},{"sampler":3,"source":3,"name":"texture"},{"sampler":4,"source":4,"name":"texture"}],"samplers":[{"magFilter":9728,"minFilter":9728,"wrapS":33071,"wrapT":33071},{"magFilter":9728,"minFilter":9728,"wrapS":33071,"wrapT":33071},{"magFilter":9728,"minFilter":9728,"wrapS":33071,"wrapT":33071},{"magFilter":9728,"minFilter":9728,"wrapS":33071,"wrapT":33071},{"magFilter":9728,"minFilter":9728,"wrapS":33071,"wrapT":33071}],"images":[{"mimeType":"image/png","uri":"data:image/png;base64,"},{"mimeType":"image/png","uri":"data:image/png;base64,"},{"mimeType":"image/png","uri":"data:image/png;base64,"},{"mimeType":"image/png","uri":"data:image/png;base64,"},{"mimeType":"image/png","uri":"data:image/png;base64,"}],"meshes":[{"primitives":[{"mode":4,"attributes":{"POSITION":0,"NORMAL":1,"TEXCOORD_0":2},"indices":3,"material":0}]},{"primitives":[{"mode":4,"attributes":{"POSITION":4,"NORMAL":5,"TEXCOORD_0":6},"indices":7,"material":1}]},{"primitives":[{"mode":4,"attributes":{"POSITION":8,"NORMAL":9,"TEXCOORD_0":10},"indices":11,"material":1}]},{"primitives":[{"mode":4,"attributes":{"POSITION":12,"NORMAL":13,"TEXCOORD_0":14},"indices":15,"material":1}]},{"primitives":[{"mode":4,"attributes":{"POSITION":16,"NORMAL":17,"TEXCOORD_0":18},"indices":19,"material":1}]},{"primitives":[{"mode":4,"attributes":{"POSITION":20,"NORMAL":21,"TEXCOORD_0":22},"indices":23,"material":1}]},{"primitives":[{"mode":4,"attributes":{"POSITION":24,"NORMAL":25,"TEXCOORD_0":26},"indices":27,"material":1}]},{"primitives":[{"mode":4,"attributes":{"POSITION":28,"NORMAL":29,"TEXCOORD_0":30},"indices":31,"material":2}]},{"primitives":[{"mode":4,"attributes":{"POSITION":32,"NORMAL":33,"TEXCOORD_0":34},"indices":35,"material":2}]},{"primitives":[{"mode":4,"attributes":{"POSITION":36,"NORMAL":37,"TEXCOORD_0":38},"indices":39,"material":2}]},{"primitives":[{"mode":4,"attributes":{"POSITION":40,"NORMAL":41,"TEXCOORD_0":42},"indices":43,"material":2}]},{"primitives":[{"mode":4,"attributes":{"POSITION":44,"NORMAL":45,"TEXCOORD_0":46},"indices":47,"material":3}]},{"primitives":[{"mode":4,"attributes":{"POSITION":48,"NORMAL":49,"TEXCOORD_0":50},"indices":51,"material":3}]},{"primitives":[{"mode":4,"attributes":{"POSITION":52,"NORMAL":53,"TEXCOORD_0":54},"indices":55,"material":3}]},{"primitives":[{"mode":4,"attributes":{"POSITION":56,"NORMAL":57,"TEXCOORD_0":58},"indices":59,"material":3}]},{"primitives":[{"mode":4,"attributes":{"POSITION":60,"NORMAL":61,"TEXCOORD_0":62},"indices":63,"material":2}]},{"primitives":[{"mode":4,"attributes":{"POSITION":64,"NORMAL":65,"TEXCOORD_0":66},"indices":67,"material":2}]},{"primitives":[{"mode":4,"attributes":{"POSITION":68,"NORMAL":69,"TEXCOORD_0":70},"indices":71,"material":3}]},{"primitives":[{"mode":4,"attributes":{"POSITION":72,"NORMAL":73,"TEXCOORD_0":74},"indices":75,"material":4}]},{"primitives":[{"mode":4,"attributes":{"POSITION":76,"NORMAL":77,"TEXCOORD_0":78},"indices":79,"material":3},{"mode":4,"attributes":{"POSITION":76,"NORMAL":77,"TEXCOORD_0":78},"indices":80,"material":5},{"mode":4,"attributes":{"POSITION":76,"NORMAL":77,"TEXCOORD_0":78},"indices":81,"material":3},{"mode":4,"attributes":{"POSITION":76,"NORMAL":77,"TEXCOORD_0":78},"indices":82,"material":5},{"mode":4,"attributes":{"POSITION":76,"NORMAL":77,"TEXCOORD_0":78},"indices":83,"material":3}]}]}