{"asset":{"version":"2.0","generator":"Blockbench 4.12.3 glTF exporter"},"scenes":[{"nodes":[5],"name":"blockbench_export"}],"scene":0,"nodes":[{"translation":[0,-0.25,0],"name":"cuboid","mesh":0},{"rotation":[0.6532814824381877,-0.27059805007309834,0.2705980500730986,0.6532814824381887],"translation":[-0.08333333333333333,0.8333333333333333,0.08333333333333333],"name":"cuboid","mesh":1},{"rotation":[0.7071067811865475,0,0,0.7071067811865476],"name":"cylinder","mesh":2},{"translation":[0,-0.16666666666666666,0.08333333333333333],"name":"beveled_cuboid","mesh":3},{"rotation":[-0.2121088789277562,0.24236699369181497,-0.672430730417734,0.6664120171775678],"translation":[-0.25,0.9166666666666666,-0.41666666666666663],"name":"cylinder","children":[2,3]},{"children":[0,1,4]}],"bufferViews":[{"buffer":0,"byteOffset":0,"byteLength":2784,"target":34962,"byteStride":12},{"buffer":0,"byteOffset":2784,"byteLength":2784,"target":34962,"byteStride":12},{"buffer":0,"byteOffset":5568,"byteLength":1856,"target":34962,"byteStride":8},{"buffer":0,"byteOffset":7424,"byteLength":696,"target":34963},{"buffer":0,"byteOffset":8120,"byteLength":3000,"target":34962,"byteStride":12},{"buffer":0,"byteOffset":11120,"byteLength":3000,"target":34962,"byteStride":12},{"buffer":0,"byteOffset":14120,"byteLength":2000,"target":34962,"byteStride":8},{"buffer":0,"byteOffset":16120,"byteLength":744,"target":34963},{"buffer":0,"byteOffset":16864,"byteLength":960,"target":34962,"byteStride":12},{"buffer":0,"byteOffset":17824,"byteLength":960,"target":34962,"byteStride":12},{"buffer":0,"byteOffset":18784,"byteLength":640,"target":34962,"byteStride":8},{"buffer":0,"byteOffset":19424,"byteLength":192,"target":34963},{"buffer":0,"byteOffset":19616,"byteLength":1464,"target":34962,"byteStride":12},{"buffer":0,"byteOffset":21080,"byteLength":1464,"target":34962,"byteStride":12},{"buffer":0,"byteOffset":22544,"byteLength":976,"target":34962,"byteStride":8},{"buffer":0,"byteOffset":23520,"byteLength":336,"target":34963}],"buffers":[{"byteLength":23856,"uri":"data:application/octet-stream;base64,"}],"accessors":[{"bufferView":0,"componentType":5126,"count":232,"max":[0.4583333432674408,1.0833333730697632,0.4583333432674408],"min":[-0.4583333432674408,0.25,-0.4583333432674408],"type":"VEC3"},{"bufferView":1,"componentType":5126,"count":232,"max":[1,1,1],"min":[-1,-1,-1],"type":"VEC3"},{"bufferView":2,"componentType":5126,"count":232,"max":[0.671875,0.671875],"min":[0,0],"type":"VEC2"},{"bufferView":3,"componentType":5123,"count":348,"max":[231],"min":[0],"type":"SCALAR"},{"bufferView":4,"componentType":5126,"count":250,"max":[0.2083333283662796,0.5,0.0416666679084301],"min":[-0.125,-0.8333333134651184,-0.0416666679084301],"type":"VEC3"},{"bufferView":5,"componentType":5126,"count":250,"max":[1,1,1],"min":[-1,-1,-1],"type":"VEC3"},{"bufferView":6,"componentType":5126,"count":250,"max":[0.53125,0.5],"min":[0,0],"type":"VEC2"},{"bufferView":7,"componentType":5123,"count":372,"max":[249],"min":[0],"type":"SCALAR"},{"bufferView":8,"componentType":5126,"count":80,"max":[0.0416666679084301,1,0.0416666679084301],"min":[-0.0416666679084301,0,-0.0416666679084301],"type":"VEC3"},{"bufferView":9,"componentType":5126,"count":80,"max":[1,1,1],"min":[-1,-1,-1],"type":"VEC3"},{"bufferView":10,"componentType":5126,"count":80,"max":[0.5625,0.78125],"min":[0,0],"type":"VEC2"},{"bufferView":11,"componentType":5123,"count":96,"max":[79],"min":[0],"type":"SCALAR"},{"bufferView":12,"componentType":5126,"count":122,"max":[0.125,0.3333333432674408,0.125],"min":[-0.125,-0.0833333358168602,-0.125],"type":"VEC3"},{"bufferView":13,"componentType":5126,"count":122,"max":[1,1,1],"min":[-1,-0.8137334585189819,-1],"type":"VEC3"},{"bufferView":14,"componentType":5126,"count":122,"max":[0.625,0.589284360408783],"min":[0.0625,0],"type":"VEC2"},{"bufferView":15,"componentType":5123,"count":168,"max":[121],"min":[0],"type":"SCALAR"}],"materials":[{"pbrMetallicRoughness":{"metallicFactor":0,"roughnessFactor":1,"baseColorTexture":{"index":0}},"alphaMode":"MASK","alphaCutoff":0.05,"doubleSided":true},{"pbrMetallicRoughness":{"metallicFactor":0,"roughnessFactor":1,"baseColorTexture":{"index":1}},"alphaMode":"MASK","alphaCutoff":0.05,"doubleSided":true},{"pbrMetallicRoughness":{"metallicFactor":0,"roughnessFactor":1,"baseColorTexture":{"index":2}},"alphaMode":"MASK","alphaCutoff":0.05,"doubleSided":true}],"textures":[{"sampler":0,"source":0,"name":"texture"},{"sampler":1,"source":1,"name":"texture"},{"sampler":2,"source":2,"name":"texture"}],"samplers":[{"magFilter":9728,"minFilter":9728,"wrapS":33071,"wrapT":33071},{"magFilter":9728,"minFilter":9728,"wrapS":33071,"wrapT":33071},{"magFilter":9728,"minFilter":9728,"wrapS":33071,"wrapT":33071}],"images":[{"mimeType":"image/png","uri":"data:image/png;base64,"},{"mimeType":"image/png","uri":"data:image/png;base64,"},{"mimeType":"image/png","uri":"data:image/png;base64,"}],"meshes":[{"primitives":[{"mode":4,"attributes":{"POSITION":0,"NORMAL":1,"TEXCOORD_0":2},"indices":3,"material":0}]},{"primitives":[{"mode":4,"attributes":{"POSITION":4,"NORMAL":5,"TEXCOORD_0":6},"indices":7,"material":1}]},{"primitives":[{"mode":4,"attributes":{"POSITION":8,"NORMAL":9,"TEXCOORD_0":10},"indices":11,"material":2}]},{"primitives":[{"mode":4,"attributes":{"POSITION":12,"NORMAL":13,"TEXCOORD_0":14},"indices":15,"material":2}]}]}