{"asset":{"version":"2.0","generator":"Blockbench 4.12.3 glTF exporter"},"scenes":[{"nodes":[16],"name":"blockbench_export"}],"scene":0,"nodes":[{"name":"cuboid","mesh":0},{"translation":[0,0,1.4473684210526314],"name":"cuboid","mesh":1},{"translation":[-1.5,1.3684210526315788,-0.8421052631578947],"name":"left2"},{"translation":[-1.5,1.3684210526315788,-0.8421052631578947],"name":"left2"},{"translation":[-1.5,1.3684210526315788,-0.8421052631578947],"name":"left2"},{"translation":[-1.5,1.3684210526315788,-0.8421052631578947],"name":"left2"},{"rotation":[0,0,0.7071067811865475,0.7071067811865476],"translation":[1.894736842105263,1,0],"name":"torus","mesh":2},{"rotation":[0,0,-0.7071067811865475,0.7071067811865476],"translation":[-1.894736842105263,1,0],"name":"torus","mesh":3},{"translation":[1.5,1.3684210526315788,0.8421052631578947],"name":"right2"},{"translation":[1,2.236842105263158,0],"name":"cuboid","mesh":4},{"translation":[1.5,1.3684210526315788,-0.8421052631578947],"name":"right"},{"rotation":[-0.42261826174069944,0,0,0.9063077870366499],"translation":[2,0,-1.6842105263157894],"name":"cuboid","mesh":5},{"rotation":[0.42261826174069944,0,0,0.9063077870366499],"translation":[2,0,0],"name":"cuboid","mesh":6},{"translation":[-1.5,1.3684210526315788,0.8421052631578947],"name":"left","children":[11,12]},{"translation":[-1.5,1.3684210526315788,-0.8421052631578947],"name":"left2"},{"translation":[0.18421052631578946,0.4473684210526315,0.894736842105263],"name":"cuboid","mesh":7},{"children":[0,1,2,3,4,5,6,7,8,9,10,13,14,15]}],"bufferViews":[{"buffer":0,"byteOffset":0,"byteLength":50976,"target":34962,"byteStride":12},{"buffer":0,"byteOffset":50976,"byteLength":50976,"target":34962,"byteStride":12},{"buffer":0,"byteOffset":101952,"byteLength":33984,"target":34962,"byteStride":8},{"buffer":0,"byteOffset":135936,"byteLength":12744,"target":34963},{"buffer":0,"byteOffset":148680,"byteLength":2688,"target":34962,"byteStride":12},{"buffer":0,"byteOffset":151368,"byteLength":2688,"target":34962,"byteStride":12},{"buffer":0,"byteOffset":154056,"byteLength":1792,"target":34962,"byteStride":8},{"buffer":0,"byteOffset":155848,"byteLength":672,"target":34963},{"buffer":0,"byteOffset":156520,"byteLength":2304,"target":34962,"byteStride":12},{"buffer":0,"byteOffset":158824,"byteLength":2304,"target":34962,"byteStride":12},{"buffer":0,"byteOffset":161128,"byteLength":1536,"target":34962,"byteStride":8},{"buffer":0,"byteOffset":162664,"byteLength":576,"target":34963},{"buffer":0,"byteOffset":163240,"byteLength":2304,"target":34962,"byteStride":12},{"buffer":0,"byteOffset":165544,"byteLength":2304,"target":34962,"byteStride":12},{"buffer":0,"byteOffset":167848,"byteLength":1536,"target":34962,"byteStride":8},{"buffer":0,"byteOffset":169384,"byteLength":576,"target":34963},{"buffer":0,"byteOffset":169960,"byteLength":1824,"target":34962,"byteStride":12},{"buffer":0,"byteOffset":171784,"byteLength":1824,"target":34962,"byteStride":12},{"buffer":0,"byteOffset":173608,"byteLength":1216,"target":34962,"byteStride":8},{"buffer":0,"byteOffset":174824,"byteLength":456,"target":34963},{"buffer":0,"byteOffset":175280,"byteLength":1056,"target":34962,"byteStride":12},{"buffer":0,"byteOffset":176336,"byteLength":1056,"target":34962,"byteStride":12},{"buffer":0,"byteOffset":177392,"byteLength":704,"target":34962,"byteStride":8},{"buffer":0,"byteOffset":178096,"byteLength":264,"target":34963},{"buffer":0,"byteOffset":178360,"byteLength":1056,"target":34962,"byteStride":12},{"buffer":0,"byteOffset":179416,"byteLength":1056,"target":34962,"byteStride":12},{"buffer":0,"byteOffset":180472,"byteLength":704,"target":34962,"byteStride":8},{"buffer":0,"byteOffset":181176,"byteLength":264,"target":34963},{"buffer":0,"byteOffset":181440,"byteLength":288,"target":34962,"byteStride":12},{"buffer":0,"byteOffset":181728,"byteLength":288,"target":34962,"byteStride":12},{"buffer":0,"byteOffset":182016,"byteLength":192,"target":34962,"byteStride":8},{"buffer":0,"byteOffset":182208,"byteLength":72,"target":34963}],"buffers":[{"byteLength":182280,"uri":"data:application/octet-stream;base64,"}],"accessors":[{"bufferView":0,"componentType":5126,"count":4248,"max":[1.9736841917037964,2.3684210777282715,1],"min":[-1.9736841917037964,0,-1],"type":"VEC3"},{"bufferView":1,"componentType":5126,"count":4248,"max":[1,1,1],"min":[-1,-1,-1],"type":"VEC3"},{"bufferView":2,"componentType":5126,"count":4248,"max":[0.7431544661521912,0.7100244760513306],"min":[0,0],"type":"VEC2"},{"bufferView":3,"componentType":5123,"count":6372,"max":[4247],"min":[0],"type":"SCALAR"},{"bufferView":4,"componentType":5126,"count":224,"max":[0.5789473652839661,0.28947368264198303,0.31578946113586426],"min":[-0.5789473652839661,0,-0.6578947305679321],"type":"VEC3"},{"bufferView":5,"componentType":5126,"count":224,"max":[1,1,1],"min":[-1,-1,-1],"type":"VEC3"},{"bufferView":6,"componentType":5126,"count":224,"max":[0.6875,0.25],"min":[0,0],"type":"VEC2"},{"bufferView":7,"componentType":5123,"count":336,"max":[223],"min":[0],"type":"SCALAR"},{"bufferView":8,"componentType":5126,"count":192,"max":[0.1975145787000656,0.060773711651563644,0.17105263471603394],"min":[-0.1975145787000656,-0.060773711651563644,-0.17105263471603394],"type":"VEC3"},{"bufferView":9,"componentType":5126,"count":192,"max":[0.8151645660400391,0.9021230936050415,0.9412709474563599],"min":[-0.8151645660400391,-0.9021230936050415,-0.9412709474563599],"type":"VEC3"},{"bufferView":10,"componentType":5126,"count":192,"max":[0.11727499961853027,0.027107834815979004],"min":[0,0],"type":"VEC2"},{"bufferView":11,"componentType":5123,"count":288,"max":[191],"min":[0],"type":"SCALAR"},{"bufferView":12,"componentType":5126,"count":192,"max":[0.1975145787000656,0.060773711651563644,0.17105263471603394],"min":[-0.1975145787000656,-0.060773711651563644,-0.17105263471603394],"type":"VEC3"},{"bufferView":13,"componentType":5126,"count":192,"max":[0.8151645660400391,0.9021230936050415,0.9412709474563599],"min":[-0.8151645660400391,-0.9021230936050415,-0.9412709474563599],"type":"VEC3"},{"bufferView":14,"componentType":5126,"count":192,"max":[0.11727499961853027,0.027107834815979004],"min":[0,0],"type":"VEC2"},{"bufferView":15,"componentType":5123,"count":288,"max":[191],"min":[0],"type":"SCALAR"},{"bufferView":16,"componentType":5126,"count":152,"max":[0.2631579041481018,0.8684210777282715,0.2368421107530594],"min":[-0.2631579041481018,-0.31578946113586426,-0.2368421107530594],"type":"VEC3"},{"bufferView":17,"componentType":5126,"count":152,"max":[1,1,1],"min":[-1,-1,-1],"type":"VEC3"},{"bufferView":18,"componentType":5126,"count":152,"max":[0.8627601861953735,0.7942281365394592],"min":[0,0.0019531231373548508],"type":"VEC2"},{"bufferView":19,"componentType":5123,"count":228,"max":[151],"min":[0],"type":"SCALAR"},{"bufferView":20,"componentType":5126,"count":88,"max":[1.763157844543457,0.21052631735801697,1.4087446928024292],"min":[-2.6315789222717285,-0.053989995270967484,-0.21052631735801697],"type":"VEC3"},{"bufferView":21,"componentType":5126,"count":88,"max":[1,0.9984104037284851,0.9961872100830078],"min":[-1,-0.9999467134475708,-1],"type":"VEC3"},{"bufferView":22,"componentType":5126,"count":88,"max":[0.63671875,0.4296875],"min":[0,0],"type":"VEC2"},{"bufferView":23,"componentType":5123,"count":132,"max":[87],"min":[0],"type":"SCALAR"},{"bufferView":24,"componentType":5126,"count":88,"max":[1.763157844543457,0.21052631735801697,0.21052631735801697],"min":[-2.6315789222717285,-0.053989995270967484,-1.4087446928024292],"type":"VEC3"},{"bufferView":25,"componentType":5126,"count":88,"max":[1,0.9984104037284851,1],"min":[-1,-0.9999467134475708,-0.9961872100830078],"type":"VEC3"},{"bufferView":26,"componentType":5126,"count":88,"max":[0.63671875,0.4296875],"min":[0,0],"type":"VEC2"},{"bufferView":27,"componentType":5123,"count":132,"max":[87],"min":[0],"type":"SCALAR"},{"bufferView":28,"componentType":5126,"count":24,"max":[0.19736842811107635,0.7894737124443054,-0.03947368264198303],"min":[-0.6447368264198303,-0.07894736528396606,-0.1184210553765297],"type":"VEC3"},{"bufferView":29,"componentType":5126,"count":24,"max":[0.7071067690849304,0.7071067690849304,1],"min":[-0.7071067690849304,-0.7071067690849304,-1],"type":"VEC3"},{"bufferView":30,"componentType":5126,"count":24,"max":[0.921875,1],"min":[0,0],"type":"VEC2"},{"bufferView":31,"componentType":5123,"count":36,"max":[23],"min":[0],"type":"SCALAR"}],"materials":[{"pbrMetallicRoughness":{"metallicFactor":0,"roughnessFactor":1,"baseColorTexture":{"index":0}},"alphaMode":"MASK","alphaCutoff":0.05,"doubleSided":true},{"pbrMetallicRoughness":{"metallicFactor":0,"roughnessFactor":1},"alphaMode":"MASK","alphaCutoff":0.05,"doubleSided":true},{"pbrMetallicRoughness":{"metallicFactor":0,"roughnessFactor":1,"baseColorTexture":{"index":1}},"alphaMode":"MASK","alphaCutoff":0.05,"doubleSided":true},{"pbrMetallicRoughness":{"metallicFactor":0,"roughnessFactor":1,"baseColorTexture":{"index":2}},"alphaMode":"MASK","alphaCutoff":0.05,"doubleSided":true},{"pbrMetallicRoughness":{"metallicFactor":0,"roughnessFactor":1,"baseColorTexture":{"index":3}},"alphaMode":"MASK","alphaCutoff":0.05,"doubleSided":true}],"textures":[{"sampler":0,"source":0,"name":"texture"},{"sampler":1,"source":1,"name":"bricksx34.png"},{"sampler":2,"source":2,"name":"texture"},{"sampler":3,"source":3,"name":"texture"}],"samplers":[{"magFilter":9728,"minFilter":9728,"wrapS":33071,"wrapT":33071},{"magFilter":9728,"minFilter":9728,"wrapS":33071,"wrapT":33071},{"magFilter":9728,"minFilter":9728,"wrapS":33071,"wrapT":33071},{"magFilter":9728,"minFilter":9728,"wrapS":33071,"wrapT":33071}],"images":[{"mimeType":"image/png","uri":"data:image/png;base64,"},{"mimeType":"image/png","uri":"data:image/png;base64,"},{"mimeType":"image/png","uri":"data:image/png;base64,"},{"mimeType":"image/png","uri":"data:image/png;base64,"}],"meshes":[{"primitives":[{"mode":4,"attributes":{"POSITION":0,"NORMAL":1,"TEXCOORD_0":2},"indices":3,"material":0}]},{"primitives":[{"mode":4,"attributes":{"POSITION":4,"NORMAL":5,"TEXCOORD_0":6},"indices":7,"material":1}]},{"primitives":[{"mode":4,"attributes":{"POSITION":8,"NORMAL":9,"TEXCOORD_0":10},"indices":11,"material":1}]},{"primitives":[{"mode":4,"attributes":{"POSITION":12,"NORMAL":13,"TEXCOORD_0":14},"indices":15,"material":1}]},{"primitives":[{"mode":4,"attributes":{"POSITION":16,"NORMAL":17,"TEXCOORD_0":18},"indices":19,"material":2}]},{"primitives":[{"mode":4,"attributes":{"POSITION":20,"NORMAL":21,"TEXCOORD_0":22},"indices":23,"material":3}]},{"primitives":[{"mode":4,"attributes":{"POSITION":24,"NORMAL":25,"TEXCOORD_0":26},"indices":27,"material":3}]},{"primitives":[{"mode":4,"attributes":{"POSITION":28,"NORMAL":29,"TEXCOORD_0":30},"indices":31,"material":4}]}]}