{"asset":{"version":"2.0","generator":"Blockbench 4.12.3 glTF exporter"},"scenes":[{"nodes":[3],"name":"blockbench_export"}],"scene":0,"nodes":[{"name":"cylinder","mesh":0},{"translation":[0,2.25,0],"name":"pyramid","mesh":1},{"rotation":[0,0.5555702330196022,0,0.8314696123025452],"translation":[0,1.375,0],"name":"pyramid","mesh":2},{"children":[0,1,2]}],"bufferViews":[{"buffer":0,"byteOffset":0,"byteLength":1560,"target":34962,"byteStride":12},{"buffer":0,"byteOffset":1560,"byteLength":1560,"target":34962,"byteStride":12},{"buffer":0,"byteOffset":3120,"byteLength":1040,"target":34962,"byteStride":8},{"buffer":0,"byteOffset":4160,"byteLength":360,"target":34963},{"buffer":0,"byteOffset":4520,"byteLength":816,"target":34962,"byteStride":12},{"buffer":0,"byteOffset":5336,"byteLength":816,"target":34962,"byteStride":12},{"buffer":0,"byteOffset":6152,"byteLength":544,"target":34962,"byteStride":8},{"buffer":0,"byteOffset":6696,"byteLength":168,"target":34963},{"buffer":0,"byteOffset":6864,"byteLength":816,"target":34962,"byteStride":12},{"buffer":0,"byteOffset":7680,"byteLength":816,"target":34962,"byteStride":12},{"buffer":0,"byteOffset":8496,"byteLength":544,"target":34962,"byteStride":8},{"buffer":0,"byteOffset":9040,"byteLength":168,"target":34963}],"buffers":[{"byteLength":9208,"uri":"data:application/octet-stream;base64,"}],"accessors":[{"bufferView":0,"componentType":5126,"count":130,"max":[0.22041946649551392,3.3125,0.1875],"min":[-0.22041946649551392,0,-0.23176275193691254],"type":"VEC3"},{"bufferView":1,"componentType":5126,"count":130,"max":[0.9510565400123596,1,1],"min":[-0.9510565400123596,-1,-0.8738232851028442],"type":"VEC3"},{"bufferView":2,"componentType":5126,"count":130,"max":[0.570729672908783,0.8334734439849854],"min":[0.0050062499940395355,0],"type":"VEC2"},{"bufferView":3,"componentType":5123,"count":180,"max":[129],"min":[0],"type":"SCALAR"},{"bufferView":4,"componentType":5126,"count":68,"max":[0.8125,0.9375,0.6875],"min":[-0.8385002017021179,-0.6146002411842346,-0.8125],"type":"VEC3"},{"bufferView":5,"componentType":5126,"count":68,"max":[0.8261909484863281,0.5561380982398987,0.8759622573852539],"min":[-0.9228428602218628,-0.963253378868103,-0.8964836597442627],"type":"VEC3"},{"bufferView":6,"componentType":5126,"count":68,"max":[0.4481411278247833,0.5316382646560669],"min":[0,0],"type":"VEC2"},{"bufferView":7,"componentType":5123,"count":84,"max":[67],"min":[0],"type":"SCALAR"},{"bufferView":8,"componentType":5126,"count":68,"max":[1.0625,1.125,0.9918373823165894],"min":[-1.0885001420974731,-0.8021002411842346,-1.1684699058532715],"type":"VEC3"},{"bufferView":9,"componentType":5126,"count":68,"max":[0.8049958944320679,0.7352157831192017,0.8397422432899475],"min":[-0.9136143922805786,-0.9893085360527039,-0.940664529800415],"type":"VEC3"},{"bufferView":10,"componentType":5126,"count":68,"max":[0.5546875,0.7046929597854614],"min":[0,0],"type":"VEC2"},{"bufferView":11,"componentType":5123,"count":84,"max":[67],"min":[0],"type":"SCALAR"}],"materials":[{"pbrMetallicRoughness":{"metallicFactor":0,"roughnessFactor":1,"baseColorTexture":{"index":0}},"alphaMode":"MASK","alphaCutoff":0.05,"doubleSided":true},{"pbrMetallicRoughness":{"metallicFactor":0,"roughnessFactor":1,"baseColorTexture":{"index":1}},"alphaMode":"MASK","alphaCutoff":0.05,"doubleSided":true},{"pbrMetallicRoughness":{"metallicFactor":0,"roughnessFactor":1,"baseColorTexture":{"index":2}},"alphaMode":"MASK","alphaCutoff":0.05,"doubleSided":true}],"textures":[{"sampler":0,"source":0,"name":"texture"},{"sampler":1,"source":1,"name":"texture"},{"sampler":2,"source":2,"name":"texture"}],"samplers":[{"magFilter":9728,"minFilter":9728,"wrapS":33071,"wrapT":33071},{"magFilter":9728,"minFilter":9728,"wrapS":33071,"wrapT":33071},{"magFilter":9728,"minFilter":9728,"wrapS":33071,"wrapT":33071}],"images":[{"mimeType":"image/png","uri":"data:image/png;base64,"},{"mimeType":"image/png","uri":"data:image/png;base64,"},{"mimeType":"image/png","uri":"data:image/png;base64,"}],"meshes":[{"primitives":[{"mode":4,"attributes":{"POSITION":0,"NORMAL":1,"TEXCOORD_0":2},"indices":3,"material":0}]},{"primitives":[{"mode":4,"attributes":{"POSITION":4,"NORMAL":5,"TEXCOORD_0":6},"indices":7,"material":1}]},{"primitives":[{"mode":4,"attributes":{"POSITION":8,"NORMAL":9,"TEXCOORD_0":10},"indices":11,"material":2}]}]}