{"asset":{"version":"2.0","generator":"Blockbench 4.12.3 glTF exporter"},"scenes":[{"nodes":[6],"name":"blockbench_export"}],"scene":0,"nodes":[{"translation":[0,-0.25,0],"name":"body","mesh":0},{"rotation":[0,-0.1521233861899167,0,0.9883615104677607],"translation":[0,1.3125,0],"name":"torus","mesh":1},{"translation":[0,-0.25,0],"name":"bone","children":[1]},{"translation":[0,1.3125,0],"name":"torus","mesh":2},{"translation":[0,-0.6875,0],"name":"bone2","children":[3]},{"name":"Дерево","children":[0,2,4]},{"children":[5]}],"bufferViews":[{"buffer":0,"byteOffset":0,"byteLength":2736,"target":34962,"byteStride":12},{"buffer":0,"byteOffset":2736,"byteLength":2736,"target":34962,"byteStride":12},{"buffer":0,"byteOffset":5472,"byteLength":1824,"target":34962,"byteStride":8},{"buffer":0,"byteOffset":7296,"byteLength":648,"target":34963},{"buffer":0,"byteOffset":7944,"byteLength":1440,"target":34962,"byteStride":12},{"buffer":0,"byteOffset":9384,"byteLength":1440,"target":34962,"byteStride":12},{"buffer":0,"byteOffset":10824,"byteLength":960,"target":34962,"byteStride":8},{"buffer":0,"byteOffset":11784,"byteLength":360,"target":34963},{"buffer":0,"byteOffset":12144,"byteLength":1440,"target":34962,"byteStride":12},{"buffer":0,"byteOffset":13584,"byteLength":1440,"target":34962,"byteStride":12},{"buffer":0,"byteOffset":15024,"byteLength":960,"target":34962,"byteStride":8},{"buffer":0,"byteOffset":15984,"byteLength":360,"target":34963}],"buffers":[{"byteLength":16344,"uri":"data:application/octet-stream;base64,"}],"accessors":[{"bufferView":0,"componentType":5126,"count":228,"max":[0.11792195588350296,1.5625,0.09375],"min":[-0.11792195588350296,0.25,-0.09375],"type":"VEC3"},{"bufferView":1,"componentType":5126,"count":228,"max":[0.8465046882629395,1,1],"min":[-0.8465046882629395,-1,-1],"type":"VEC3"},{"bufferView":2,"componentType":5126,"count":228,"max":[0.7014794945716858,0.7359963655471802],"min":[0,0],"type":"VEC2"},{"bufferView":3,"componentType":5123,"count":324,"max":[227],"min":[0],"type":"SCALAR"},{"bufferView":4,"componentType":5126,"count":120,"max":[0.310942143201828,0.15450850129127502,0.2645031809806824],"min":[-0.310942143201828,-0.15450850129127502,-0.32694390416145325],"type":"VEC3"},{"bufferView":5,"componentType":5126,"count":120,"max":[0.9510565400123596,0.8139804005622864,1],"min":[-0.9510565400123596,-0.8139804005622864,-1],"type":"VEC3"},{"bufferView":6,"componentType":5126,"count":120,"max":[0.71875,0.71875],"min":[0,0.03125],"type":"VEC2"},{"bufferView":7,"componentType":5123,"count":180,"max":[119],"min":[0],"type":"SCALAR"},{"bufferView":8,"componentType":5126,"count":120,"max":[0.435942143201828,0.279508501291275,0.3895031809806824],"min":[-0.435942143201828,-0.279508501291275,-0.45194390416145325],"type":"VEC3"},{"bufferView":9,"componentType":5126,"count":120,"max":[0.9523702263832092,0.7405517101287842,1],"min":[-0.9523702263832092,-0.7405517101287842,-1],"type":"VEC3"},{"bufferView":10,"componentType":5126,"count":120,"max":[0.640625,0.703125],"min":[0,0],"type":"VEC2"},{"bufferView":11,"componentType":5123,"count":180,"max":[119],"min":[0],"type":"SCALAR"}],"materials":[{"pbrMetallicRoughness":{"metallicFactor":0,"roughnessFactor":1,"baseColorTexture":{"index":0}},"alphaMode":"MASK","alphaCutoff":0.05,"doubleSided":true}],"textures":[{"sampler":0,"source":0,"name":"texture"}],"samplers":[{"magFilter":9728,"minFilter":9728,"wrapS":33071,"wrapT":33071}],"images":[{"mimeType":"image/png","uri":"data:image/png;base64,"}],"meshes":[{"primitives":[{"mode":4,"attributes":{"POSITION":0,"NORMAL":1,"TEXCOORD_0":2},"indices":3,"material":0}]},{"primitives":[{"mode":4,"attributes":{"POSITION":4,"NORMAL":5,"TEXCOORD_0":6},"indices":7,"material":0}]},{"primitives":[{"mode":4,"attributes":{"POSITION":8,"NORMAL":9,"TEXCOORD_0":10},"indices":11,"material":0}]}]}