{"asset":{"version":"2.0","generator":"Blockbench 4.12.3 glTF exporter"},"scenes":[{"nodes":[3],"name":"blockbench_export"}],"scene":0,"nodes":[{"translation":[0,0,0.125],"name":"beveled_cuboid","mesh":0},{"rotation":[0,0.19509032201612825,0,0.9807852804032304],"translation":[0.5625,-0.375,0],"name":"beveled_cuboid","mesh":1},{"rotation":[0.3966280626728883,-0.06993622875535752,-0.7011692723024653,0.5883508777818397],"translation":[-0.1875,0.3125,-0.8125],"name":"beveled_cuboid","mesh":2},{"children":[0,1,2]}],"bufferViews":[{"buffer":0,"byteOffset":0,"byteLength":1536,"target":34962,"byteStride":12},{"buffer":0,"byteOffset":1536,"byteLength":1536,"target":34962,"byteStride":12},{"buffer":0,"byteOffset":3072,"byteLength":1024,"target":34962,"byteStride":8},{"buffer":0,"byteOffset":4096,"byteLength":360,"target":34963},{"buffer":0,"byteOffset":4456,"byteLength":1152,"target":34962,"byteStride":12},{"buffer":0,"byteOffset":5608,"byteLength":1152,"target":34962,"byteStride":12},{"buffer":0,"byteOffset":6760,"byteLength":768,"target":34962,"byteStride":8},{"buffer":0,"byteOffset":7528,"byteLength":264,"target":34963},{"buffer":0,"byteOffset":7792,"byteLength":1152,"target":34962,"byteStride":12},{"buffer":0,"byteOffset":8944,"byteLength":1152,"target":34962,"byteStride":12},{"buffer":0,"byteOffset":10096,"byteLength":768,"target":34962,"byteStride":8},{"buffer":0,"byteOffset":10864,"byteLength":264,"target":34963}],"buffers":[{"byteLength":11128,"uri":"data:application/octet-stream;base64,"}],"accessors":[{"bufferView":0,"componentType":5126,"count":128,"max":[0.4375,1,0.5],"min":[-0.53125,-0.0625,-0.5625],"type":"VEC3"},{"bufferView":1,"componentType":5126,"count":128,"max":[0.9856908321380615,0.9811155796051025,0.9861629009246826],"min":[-0.9973424673080444,-1,-0.9799724817276001],"type":"VEC3"},{"bufferView":2,"componentType":5126,"count":128,"max":[0.8636658191680908,0.7892212867736816],"min":[0,0],"type":"VEC2"},{"bufferView":3,"componentType":5123,"count":180,"max":[127],"min":[0],"type":"SCALAR"},{"bufferView":4,"componentType":5126,"count":96,"max":[0.36548495292663574,0.625,0.375],"min":[-0.25,0.25,-0.375],"type":"VEC3"},{"bufferView":5,"componentType":5126,"count":96,"max":[1,0.9842524528503418,1],"min":[-1,-1,-1],"type":"VEC3"},{"bufferView":6,"componentType":5126,"count":96,"max":[0.7497562766075134,0.7916656136512756],"min":[0.0030031250789761543,0],"type":"VEC2"},{"bufferView":7,"componentType":5123,"count":132,"max":[95],"min":[0],"type":"SCALAR"},{"bufferView":8,"componentType":5126,"count":96,"max":[0.3050340414047241,0.5625,0.1875],"min":[-0.25,0.11505118012428284,-0.1875],"type":"VEC3"},{"bufferView":9,"componentType":5126,"count":96,"max":[0.928546667098999,1,0.9892246723175049],"min":[-1,-0.9721336364746094,-1],"type":"VEC3"},{"bufferView":10,"componentType":5126,"count":96,"max":[0.8716786503791809,0.7749999761581421],"min":[0.12526093423366547,0],"type":"VEC2"},{"bufferView":11,"componentType":5123,"count":132,"max":[95],"min":[0],"type":"SCALAR"}],"materials":[{"pbrMetallicRoughness":{"metallicFactor":0,"roughnessFactor":1,"baseColorTexture":{"index":0}},"alphaMode":"MASK","alphaCutoff":0.05,"doubleSided":true}],"textures":[{"sampler":0,"source":0,"name":"texture"}],"samplers":[{"magFilter":9728,"minFilter":9728,"wrapS":33071,"wrapT":33071}],"images":[{"mimeType":"image/png","uri":"data:image/png;base64,"}],"meshes":[{"primitives":[{"mode":4,"attributes":{"POSITION":0,"NORMAL":1,"TEXCOORD_0":2},"indices":3,"material":0}]},{"primitives":[{"mode":4,"attributes":{"POSITION":4,"NORMAL":5,"TEXCOORD_0":6},"indices":7,"material":0}]},{"primitives":[{"mode":4,"attributes":{"POSITION":8,"NORMAL":9,"TEXCOORD_0":10},"indices":11,"material":0}]}]}