{"asset":{"version":"2.0","generator":"Blockbench 4.12.3 glTF exporter"},"scenes":[{"nodes":[2],"name":"blockbench_export"}],"scene":0,"nodes":[{"translation":[0,0.1875,0],"name":"sphere","mesh":0},{"name":"bone"},{"children":[0,1]}],"bufferViews":[{"buffer":0,"byteOffset":0,"byteLength":1176,"target":34962,"byteStride":12},{"buffer":0,"byteOffset":1176,"byteLength":1176,"target":34962,"byteStride":12},{"buffer":0,"byteOffset":2352,"byteLength":784,"target":34962,"byteStride":8},{"buffer":0,"byteOffset":3136,"byteLength":252,"target":34963}],"buffers":[{"byteLength":3388,"uri":"data:application/octet-stream;base64,"}],"accessors":[{"bufferView":0,"componentType":5126,"count":98,"max":[0.30433735251426697,0.34375,0.28125],"min":[-0.30433735251426697,-0.21875,-0.31216394901275635],"type":"VEC3"},{"bufferView":1,"componentType":5126,"count":98,"max":[0.9641672968864441,0.8327346444129944,0.9238795042037964],"min":[-0.9641672968864441,-0.9950427412986755,-0.8818645477294922],"type":"VEC3"},{"bufferView":2,"componentType":5126,"count":98,"max":[0.78125,0.806537926197052],"min":[0,0],"type":"VEC2"},{"bufferView":3,"componentType":5123,"count":126,"max":[97],"min":[0],"type":"SCALAR"}],"materials":[{"pbrMetallicRoughness":{"metallicFactor":0,"roughnessFactor":1,"baseColorTexture":{"index":0}},"alphaMode":"MASK","alphaCutoff":0.05,"doubleSided":true}],"textures":[{"sampler":0,"source":0,"name":"texture"}],"samplers":[{"magFilter":9728,"minFilter":9728,"wrapS":33071,"wrapT":33071}],"images":[{"mimeType":"image/png","uri":"data:image/png;base64,"}],"meshes":[{"primitives":[{"mode":4,"attributes":{"POSITION":0,"NORMAL":1,"TEXCOORD_0":2},"indices":3,"material":0}]}]}